<svg xmlns="http://www.w3.org/2000/svg" viewBox="0 0 482.18 233.37"><defs><style>.cls-1{fill:#f8e600;}.cls-2{fill:#090909;}</style></defs><g id="Layer_2" data-name="Layer 2"><g id="Layer_1-2" data-name="Layer 1"><path class="cls-1" d="M0,127.43V0H350.39V127.43ZM52.49,70.5H78V62.05C78,58,78,58,73.91,58H52.57v-9.8H79.44V35.32H36.1v59.8H79.39V82.06H52.49ZM171.38,95.16c0-.56.09-1,.09-1.46q0-12.53,0-25.06a28.18,28.18,0,0,0-1.09-8.08c-1-3.23-2.65-5.94-5.83-7.51-6.17-3-14.76-1.56-19.46,3.4-.49.51-.8,1.34-1.72,1.35-.25-1.73.17-3.46-.33-5.15H128V95.11h16.07c0-6.86,0-13.56,0-20.26a40.52,40.52,0,0,1,.12-4.68,6.22,6.22,0,0,1,6.09-5.39c2.92-.06,4.07,1.15,4.87,4.83a30.26,30.26,0,0,1,.31,6.3c0,6.38,0,12.76,0,19.25Zm22.11-16.38h2.74c7.5,0,15,0,22.49,0,1.62,0,2.3-.51,2.28-2.09,0-1.88.12-3.76,0-5.62-.48-9.17-5.45-16.09-13.33-18.4a28.18,28.18,0,0,0-15.92-.06,18.53,18.53,0,0,0-13.36,13.44,29,29,0,0,0-.51,13.2C179,85.53,182.25,90.39,188,93.07c9.66,4.52,19.54,3.68,29.37.37.66-.22,1.13-.56,1-1.34-.46-3.45-.93-6.91-1.42-10.54-1,.36-1.75.62-2.47.86a37.89,37.89,0,0,1-14.24,2.07C196.16,84.23,194,82.52,193.49,78.78Zm74.16-26.34v11.5h7.88c0,6,0,11.78,0,17.54.07,7.09,2.66,11.53,7.9,13.25,6.66,2.18,13.33,1.59,20.12-.37-.42-3.93-.83-7.76-1.25-11.73a19.6,19.6,0,0,1-6.91,1c-2-.1-3.39-1.09-3.43-3.07-.13-5.51-.05-11-.05-16.79h11.76V52.38H291.75V38.61H275.51V52.44Zm-5,2.43a5.3,5.3,0,0,0-.68-.39c-.73-.27-1.46-.55-2.2-.77-8.88-2.51-17.8-3.28-26.66-.13-5.55,2-8.15,6.75-7.5,12.55.6,5.34,4.12,8.18,8.5,10.3,3.66,1.76,7.63,2.62,11.54,3.66,1.21.33,2.26.85,2.1,2.35s-1.3,2-2.67,2a31.68,31.68,0,0,1-9.06-.77c-2.83-.68-5.63-1.44-8.58-2.21-.55,3.89-1.07,7.5-1.6,11.23A46.2,46.2,0,0,0,246.22,96a26.62,26.62,0,0,0,11.28-2.67c5.49-2.87,7.92-8.43,6.17-14.15-1.13-3.7-3.91-5.92-7.14-7.65-3.59-1.93-7.54-2.88-11.46-3.9-1.42-.37-3.22-.7-3-2.61.18-2.15,2.2-1.9,3.67-2a38.35,38.35,0,0,1,8.78,1.13c2.17.43,4.19,1.53,6.62,1.64ZM88.49,52.6V95.16h16c0-5.47.14-10.84,0-16.19-.19-5.69,2.46-9.42,7.35-11.93A24,24,0,0,1,122,64.67v-13a20.14,20.14,0,0,0-9.87,2c-3,1.35-5.47,3.6-8.07,5.87-.35-2.53.18-4.81-.54-7Z"/><path class="cls-2" d="M347,217.38a34.24,34.24,0,0,0,11.18,4.08c9.81,1.47,14.87-3.11,14.15-13.28-.91.73-1.72,1.4-2.55,2-6.65,5-17,4.3-22.45-1.59a16.33,16.33,0,0,1-3.79-7.14,36.25,36.25,0,0,1-.34-16.67c3.27-15.76,20.19-15.93,28-9.48.47.39.95.75,1.74,1.38.17-1.64.31-3,.47-4.42h15a3.91,3.91,0,0,1,.22.88c-.09,13,.36,26.08-.21,39.11-.46,10.64-6.22,17.61-16.63,20a38.56,38.56,0,0,1-23.18-1.56c-3.58-1.42-3.55-1.47-2.94-5.2C346.08,222.93,346.49,220.33,347,217.38ZM372.39,193c.11-3.17.44-5.86-2-7.66a7.83,7.83,0,0,0-7.73-1.07c-2.61,1-3.83,3.11-4.2,5.7a18.2,18.2,0,0,0,0,4.89,6.68,6.68,0,0,0,6.23,6.21,7,7,0,0,0,7.42-4C372.7,195.54,372.26,194,372.39,193Z"/><path class="cls-2" d="M109.77,155v22c2.77-2.28,5.18-4.45,8.48-5.13a21.68,21.68,0,0,1,9.28,0c5.73,1.3,9.21,5.19,9.51,12.24.44,10.27.12,20.58.12,31H121.52c-.53-.57-.27-1.31-.27-2,0-6.79,0-13.58,0-20.37a16.64,16.64,0,0,0-.3-3.72c-.74-3.4-1.85-4.41-5-4.34s-5.65,1.85-6,4.74a55.34,55.34,0,0,0-.17,6.31c0,6.39,0,12.78,0,19.31H93.73V155Z"/><path class="cls-2" d="M86.21,158.74c-1.2,4.72-2.34,9.23-3.52,13.88a49.68,49.68,0,0,0-11.15-4,24.6,24.6,0,0,0-9.52-.11c-6.08,1.28-10.14,5.86-11.09,12-.73,4.74-.56,9.38,1.54,13.7,3.1,6.37,10.4,9,19,7.15a42.49,42.49,0,0,0,11.16-4.14c1.21,4.7,2.36,9.21,3.57,14a32.37,32.37,0,0,1-10.35,3.69,48.06,48.06,0,0,1-22.68-.62C41.76,211.06,34.41,201.86,33.64,190a49,49,0,0,1,.82-14.64c2.42-10.18,8.7-16.8,18.65-19.57a46,46,0,0,1,31.94,2.32C85.39,158.27,85.72,158.47,86.21,158.74Z"/><path class="cls-2" d="M293,172.28h15.18c.08,1.75.17,3.49.25,5.17.67.16.86-.26,1.08-.53,4.8-5.59,11-6.35,17.68-4.89,5.26,1.14,7.58,5,8.69,9.89a39.94,39.94,0,0,1,.83,8.37c.06,8.18,0,16.37,0,24.73H320.67c-.51-.77-.21-1.73-.22-2.63,0-6.56,0-13.11,0-19.67a17.69,17.69,0,0,0-.29-3.25c-.77-3.78-2.09-5-5.1-4.78a6.18,6.18,0,0,0-5.84,5.89c-.12,4.37-.05,8.74-.06,13.12V215H293Z"/><path class="cls-2" d="M184.81,215.19h-14c-.38,0-.76,0-1.24-.07l-.39-4.78a18.92,18.92,0,0,1-12,5.57c-6.75.52-12.19-2.71-13.9-8.5-2.09-7.06.51-13.37,6.73-16.65,4.42-2.33,9.18-2.78,14-2.84h4.18c.41-2.56-.41-4-2.75-4.54-5.63-1.24-11,.29-16.22,2-1,.34-2,.81-3.14,1.27-.57-3.86-1.13-7.62-1.7-11.45,7.16-3.27,14.59-4,22.18-3.77a32.09,32.09,0,0,1,10.09,1.71,11.16,11.16,0,0,1,7.66,10C185.32,193.74,184.58,204.35,184.81,215.19Zm-16.26-18.6a21,21,0,0,0-8.69.92c-2.62,1-3.49,4.28-1.74,6.07,2.58,2.62,9.2,1.1,10.27-2.39C168.83,199.75,168.55,198.27,168.55,196.59Z"/><path class="cls-2" d="M438.44,198.65H411.5c.17,3,1.72,4.72,4.67,5.33,5.87,1.2,11.43-.27,17-2,.49-.16,1-.37,1.72-.65.55,3.84,1.09,7.51,1.64,11.33a26.3,26.3,0,0,1-9.48,2.77,41.65,41.65,0,0,1-16.93-.73c-9.56-2.61-14.87-10.23-14.81-21.14,0-8.13,2.57-15,10-19.31,7.63-4.44,23-4.4,29.53,4.48C438.28,183.51,440.12,192.28,438.44,198.65ZM423.69,189c-.59-5.21-2.5-7.34-6.32-7.19s-5.85,2.67-5.93,7.19Z"/><path class="cls-2" d="M286.13,198.61H258.58c.61,3.21,2.28,4.9,5.24,5.45,5.4,1,10.51-.26,15.62-1.74.87-.25,1.66-.85,2.78-.73.52,3.44,1,6.88,1.59,10.32.13.82-.32,1.16-.93,1.37-9.8,3.28-19.68,4.22-29.36-.14-6.09-2.75-9.48-7.84-10.48-14.47s-.63-13.31,3.56-19c6.06-8.2,14.71-9.23,23.92-7.73,7.4,1.2,12.33,5.63,14.7,12.74C286.71,189.16,286.3,193.76,286.13,198.61Zm-15-9.67c-.83-5.33-2.62-7.28-6.41-7.18s-5.41,2.14-6,7.18Z"/><path class="cls-2" d="M480.64,174.52,479,186a72.44,72.44,0,0,0-11.92-2.83,17.13,17.13,0,0,0-4.9-.08c-1,.16-2.07.34-2.22,1.67s.71,2,1.81,2.34c1.78.54,3.6.94,5.39,1.46,3.8,1.12,7.5,2.46,10.65,5a11.52,11.52,0,0,1-.5,18.47c-4.89,3.5-10.55,4-16.27,3.93a47.27,47.27,0,0,1-15.8-2.61c-1.22-.44-1.64-1-1.36-2.38.61-3.18,1-6.42,1.45-9.79a62.81,62.81,0,0,0,13.21,3.1,19.6,19.6,0,0,0,4.9,0c1.16-.18,2.1-.73,2.19-2s-.84-1.94-2-2.23a64.84,64.84,0,0,1-11.51-3.6c-4.14-1.94-7.62-4.55-8.53-9.46-1.29-7,2.14-12.45,9.41-14.3C462.33,170.29,471.5,171.24,480.64,174.52Z"/><path class="cls-2" d="M209.62,215.13H193.34V155h16.28Z"/><path class="cls-2" d="M235.37,215.13H219.14V155h16.23Z"/><path class="cls-1" d="M205.8,69.21H193.61c-.31-4,1.85-7,5.17-7.26C203.29,61.59,205.38,63.71,205.8,69.21Z"/></g></g></svg>