<svg xmlns="http://www.w3.org/2000/svg" viewBox="0 0 395.74 84.92"><defs><style>.cls-1{fill:#fce300;}.cls-2{fill:#231f20;}</style></defs><g id="Layer_2" data-name="Layer 2"><g id="Layer_1-2" data-name="Layer 1"><rect class="cls-1" x="11.59" y="75.62" width="369.02" height="9.3"/><path class="cls-2" d="M0,26.28C0,11.93,10.84,1.18,25.36,1.18c12.5,0,22.19,8.25,24.12,20.35H36.17a11.28,11.28,0,0,0-10.78-8.07c-6.75,0-11.71,5.43-11.71,12.81S18.64,39,25.39,39c5.29,0,9.45-3.45,10.79-8.75H49.62C47.81,42.78,38.07,51.29,25.36,51.29,10.84,51.29,0,40.55,0,26.28Z"/><path class="cls-2" d="M91.69,27.93V50.09H79V29.4c0-4.24-1.5-6.41-4.8-6.41C70.38,23,68,25.71,68,30.44V50.09H55.31V0H68V15.71a15.7,15.7,0,0,1,9.82-3.51C86.26,12.2,91.69,18.39,91.69,27.93Z"/><path class="cls-2" d="M138.46,13.25v36.8h-9.79l-1.09-2.6a17.42,17.42,0,0,1-11.1,3.84c-11.26,0-19.3-8.21-19.3-19.64s8-19.51,19.3-19.51a17.49,17.49,0,0,1,11.24,3.95l1.3-2.84ZM126.41,31.68a8.24,8.24,0,1,0-16.48,0,8.24,8.24,0,1,0,16.48,0Z"/><path class="cls-2" d="M146.48,0h12.67V50.09H146.48Z"/><path class="cls-2" d="M167.13,0h12.68V50.09H167.13Z"/><path class="cls-2" d="M225.72,31.34a22.46,22.46,0,0,1-.27,3.35H198.13c.83,4.23,3.51,6.41,7.51,6.41a7.39,7.39,0,0,0,6.65-3.45h12.62c-2.6,8.4-10,13.64-19.27,13.64-11.48,0-20-8.39-20-19.63s8.44-19.58,20-19.58c11.86,0,20.08,8.46,20.08,19.26Zm-27.37-3.67h14.88A7.41,7.41,0,0,0,205.64,22C201.94,22,199.38,24,198.35,27.67Z"/><path class="cls-2" d="M267.88,27.65V50.09H255.2V29.4c0-4.28-1.61-6.41-4.8-6.41-4,0-6.22,2.76-6.22,7.45V50.09H231.5V13.29h8.89l1.75,3.79a15.29,15.29,0,0,1,11.58-4.88C262.27,12.2,267.88,18.27,267.88,27.65Z"/><path class="cls-2" d="M313.53,13.29V46c0,11.56-7.57,18.73-19.72,18.73-10.44,0-17.75-5.27-19.45-14h12.23c.88,2.46,4,3.79,7.1,3.79,4.25,0,7.66-2.7,7.66-7.08v-1.1a17.77,17.77,0,0,1-9.6,2.77c-10.55,0-18.39-7.86-18.39-18.5s7.84-18.51,18.39-18.51a17.8,17.8,0,0,1,11.61,4.26l1.6-3.08ZM301.68,30.62a7.84,7.84,0,1,0-15.68,0,7.67,7.67,0,0,0,7.86,8.06C298.41,38.68,301.68,35.3,301.68,30.62Z"/><path class="cls-2" d="M359.49,31.34a23.85,23.85,0,0,1-.26,3.35H331.9c.83,4.23,3.51,6.41,7.51,6.41a7.38,7.38,0,0,0,6.65-3.45h12.62c-2.59,8.4-10,13.64-19.27,13.64-11.48,0-20-8.39-20-19.63s8.44-19.58,20-19.58c11.87,0,20.08,8.46,20.08,19.26Zm-27.36-3.67H347A7.4,7.4,0,0,0,339.41,22,7.12,7.12,0,0,0,332.13,27.67Z"/><path class="cls-2" d="M379.47,51.29c-10,0-16.12-5.3-16.24-13.27h12.2c0,2.69,1.88,3.93,4.28,3.93,1.86,0,3.62-.94,3.62-2.84,0-2.13-2.79-2.73-6.33-3.32-5.7-.92-13.27-2.64-13.27-11.57,0-7.38,6.29-12.14,15.72-12.14s15.44,5,15.58,12.44H383.16c0-2.35-1.58-3.44-3.87-3.44-2,0-3.4,1-3.4,2.71,0,2.1,2.82,2.58,6.31,3.21,5.81,1,13.54,2.24,13.54,11.57,0,7.69-6.49,12.72-16.27,12.72Z"/></g></g></svg>