<svg xmlns="http://www.w3.org/2000/svg" viewBox="0 0 124.69 86.76"><defs><style>.cls-1{fill:#a0cd53;}.cls-2{fill:#6fbe46;}.cls-3{fill:#010101;}</style></defs><g id="Layer_2" data-name="Layer 2"><g id="Layer_1-2" data-name="Layer 1"><g id="Layer_2-2" data-name="Layer 2"><g id="Layer_1-2-2" data-name="Layer 1-2"><polygon class="cls-1" points="124.69 5.42 124.69 27.11 119.27 27.11 119.27 32.54 108.43 32.54 108.43 65.07 103 65.07 103 75.91 97.6 75.91 97.6 81.34 86.8 81.34 86.8 86.76 38 86.76 38 81.34 27.11 81.34 27.11 75.91 21.69 75.91 21.69 65.07 16.27 65.07 16.27 32.54 5.42 32.54 5.42 27.11 0 27.11 0 5.42 5.42 5.42 5.42 0 27.11 0 27.11 5.42 32.54 5.42 32.54 16.27 38 16.27 38 10.85 48.8 10.85 48.8 5.42 75.91 5.42 75.91 10.85 86.76 10.85 86.76 16.27 92.18 16.27 92.18 5.42 97.6 5.42 97.6 0 119.29 0 119.29 5.42 124.69 5.42"/><polygon class="cls-2" points="21.69 10.85 21.69 16.27 16.27 16.27 16.27 21.69 10.85 21.69 10.85 10.85 21.69 10.85"/><polygon class="cls-2" points="113.87 10.85 113.87 21.69 108.45 21.69 108.45 16.27 103.02 16.27 103.02 10.85 113.87 10.85"/><rect class="cls-3" x="37.96" y="32.54" width="5.42" height="5.42"/><rect class="cls-3" x="81.34" y="32.54" width="5.42" height="5.42"/><polygon class="cls-3" points="75.91 65.07 75.91 70.49 48.8 70.49 48.8 65.07 54.22 65.07 54.22 54.22 59.65 54.22 59.65 48.8 65.07 48.8 65.07 54.22 70.49 54.22 70.49 65.07 75.91 65.07"/><rect class="cls-3" x="43.38" y="59.65" width="5.42" height="5.42"/><rect class="cls-3" x="75.91" y="59.65" width="5.43" height="5.42"/><path class="cls-1" d="M119.29,5.42V0H97.6V5.42H92.18V16.27H86.76V10.85H75.91V5.42H48.8v5.43H38v5.42H32.54V5.42H27.11V0H5.42V5.42H0V27.11H5.42v5.43H16.27V65.07h5.42V75.91h5.42v5.43H38v5.42H86.8V81.34H97.6V75.91H103V65.07h5.43V32.54h10.84V27.11h5.42V5.42Zm-5.42,16.27h-5.42V16.27H103V10.85h10.85Zm-103-10.84H21.69v5.42H16.27v5.42H10.85Zm65,59.64H48.8V65.07H43.38V59.65H48.8v5.42h5.42V54.22h5.43V48.8h5.42v5.42h5.42V65.07h5.42V59.65h5.43v5.42H75.91ZM86.76,38H81.34V32.54h5.42ZM43.38,38H38V32.54h5.42Z"/></g></g></g></g></svg>