<svg xmlns="http://www.w3.org/2000/svg" viewBox="0 0 441.17 86.76"><defs><style>.cls-1{fill:#a0cd53;}.cls-2{fill:#231f20;}.cls-3{fill:#6fbe46;}.cls-4{fill:#010101;}</style></defs><g id="Layer_2" data-name="Layer 2"><g id="Layer_1-2" data-name="Layer 1"><g id="Layer_2-2" data-name="Layer 2"><g id="Layer_1-2-2" data-name="Layer 1-2"><polygon class="cls-1" points="124.69 5.42 124.69 27.11 119.27 27.11 119.27 32.54 108.43 32.54 108.43 65.07 103 65.07 103 75.91 97.6 75.91 97.6 81.34 86.8 81.34 86.8 86.76 38 86.76 38 81.34 27.11 81.34 27.11 75.91 21.69 75.91 21.69 65.07 16.27 65.07 16.27 32.54 5.42 32.54 5.42 27.11 0 27.11 0 5.42 5.42 5.42 5.42 0 27.11 0 27.11 5.42 32.54 5.42 32.54 16.27 38 16.27 38 10.85 48.8 10.85 48.8 5.42 75.91 5.42 75.91 10.85 86.76 10.85 86.76 16.27 92.18 16.27 92.18 5.42 97.6 5.42 97.6 0 119.29 0 119.29 5.42 124.69 5.42"/><path class="cls-2" d="M151.71,27.72V45.94l20.66-21.55a19,19,0,0,1,2.53-2.3,4.74,4.74,0,0,1,2.79-.75,5.08,5.08,0,0,1,3.66,1.33,4.29,4.29,0,0,1,1.4,3.24,6.42,6.42,0,0,1-2.37,4.57L167.59,42.61l14.74,21.12a26.43,26.43,0,0,1,2.34,3.84,7.48,7.48,0,0,1,.78,3.21,4,4,0,0,1-1.37,3,5.14,5.14,0,0,1-3.7,1.28,6.2,6.2,0,0,1-3.58-.94,8,8,0,0,1-2.34-2.5c-.64-1-1.2-2-1.7-2.84L160.32,49.66l-8.61,8.25V68.65a6.82,6.82,0,0,1-1.49,4.84,5,5,0,0,1-3.83,1.58,5.08,5.08,0,0,1-2.58-.71,5,5,0,0,1-1.92-1.92,6.12,6.12,0,0,1-.6-2.3c-.07-.87-.11-2.14-.11-3.79V27.72a7.07,7.07,0,0,1,1.4-4.78,4.82,4.82,0,0,1,3.81-1.6,5,5,0,0,1,3.85,1.58A6.84,6.84,0,0,1,151.71,27.72Z"/><path class="cls-2" d="M227.62,55.4a22.92,22.92,0,0,1-1.35,8,17.48,17.48,0,0,1-3.9,6.27,17.21,17.21,0,0,1-6.09,4,21.42,21.42,0,0,1-8,1.4,20.93,20.93,0,0,1-7.9-1.42,17.4,17.4,0,0,1-10-10.3,22.67,22.67,0,0,1-1.33-8,23.46,23.46,0,0,1,1.34-8,17.42,17.42,0,0,1,3.87-6.23,16.9,16.9,0,0,1,6.09-4,23.06,23.06,0,0,1,15.88,0,17.28,17.28,0,0,1,6.13,4,17.58,17.58,0,0,1,3.88,6.23A23.27,23.27,0,0,1,227.62,55.4Zm-9.71,0c0-3.94-.87-7-2.61-9.22a8.48,8.48,0,0,0-7-3.29,8.71,8.71,0,0,0-5,1.47A9.33,9.33,0,0,0,200,48.7a17.67,17.67,0,0,0-1.17,6.7A17.48,17.48,0,0,0,200,62a9.47,9.47,0,0,0,3.29,4.35,8.56,8.56,0,0,0,5.05,1.5,8.41,8.41,0,0,0,7-3.31q2.57-3.29,2.57-9.14Z"/><path class="cls-2" d="M259.69,69.61a29.7,29.7,0,0,1-6.79,4.09,18.67,18.67,0,0,1-7.35,1.37A13.68,13.68,0,0,1,239,73.59a10.59,10.59,0,0,1-4.34-4,10.3,10.3,0,0,1-1.52-5.46,9.78,9.78,0,0,1,2.51-6.77,12.59,12.59,0,0,1,6.91-3.75c.62-.15,2.14-.46,4.57-1s4.52-1,6.26-1.37,3.62-.91,5.65-1.5a10.16,10.16,0,0,0-1.54-5.62q-1.37-1.77-5.65-1.79a11.77,11.77,0,0,0-5.55,1,9.14,9.14,0,0,0-3.19,3.08,28.41,28.41,0,0,1-1.88,2.71,3,3,0,0,1-2.35.66,4.06,4.06,0,0,1-2.82-1,3.37,3.37,0,0,1-1.19-2.67,8.21,8.21,0,0,1,1.81-5,13,13,0,0,1,5.63-4,25.63,25.63,0,0,1,9.54-1.56,27,27,0,0,1,10,1.51A9.32,9.32,0,0,1,267,41.93a20.86,20.86,0,0,1,1.51,8.65V61.64a19.49,19.49,0,0,0,.9,5.68,18,18,0,0,1,.9,3.81,3.51,3.51,0,0,1-1.39,2.71,4.63,4.63,0,0,1-3.18,1.23,4.26,4.26,0,0,1-2.94-1.4A20.83,20.83,0,0,1,259.69,69.61Zm-.64-14a47.31,47.31,0,0,1-6.18,1.65c-2.71.58-4.58,1-5.62,1.27a7.92,7.92,0,0,0-3,1.6,4.08,4.08,0,0,0-1.41,3.31,4.89,4.89,0,0,0,1.66,3.74,6.08,6.08,0,0,0,4.36,1.54,11.25,11.25,0,0,0,5.3-1.26,8.26,8.26,0,0,0,3.56-3.24c.85-1.48,1.3-3.88,1.33-7.22Z"/><path class="cls-2" d="M278.37,69.18v-42a6.58,6.58,0,0,1,1.29-4.39,4.42,4.42,0,0,1,3.49-1.49,4.6,4.6,0,0,1,3.54,1.47A6.38,6.38,0,0,1,288,27.22v42a6.32,6.32,0,0,1-1.36,4.41,4.54,4.54,0,0,1-3.53,1.48,4.33,4.33,0,0,1-3.46-1.53A6.43,6.43,0,0,1,278.37,69.18Z"/><path class="cls-2" d="M302.92,31.23A5,5,0,0,1,299.47,30,4.38,4.38,0,0,1,298,26.48a4.33,4.33,0,0,1,1.47-3.38,5,5,0,0,1,3.42-1.33,5.15,5.15,0,0,1,3.34,1.2,4.34,4.34,0,0,1,1.45,3.51A4.39,4.39,0,0,1,306.29,30,4.86,4.86,0,0,1,302.92,31.23Zm4.79,10v28a6.25,6.25,0,0,1-1.38,4.4,4.55,4.55,0,0,1-3.51,1.49,4.33,4.33,0,0,1-3.46-1.53A6.43,6.43,0,0,1,298,69.18V41.51a6.28,6.28,0,0,1,1.33-4.33,4.51,4.51,0,0,1,3.46-1.45,4.65,4.65,0,0,1,3.51,1.45,5.65,5.65,0,0,1,1.41,4Z"/><path class="cls-2" d="M316.92,36.58h2.31V33.67a18.5,18.5,0,0,1,1.15-7.21,7.3,7.3,0,0,1,3.9-3.9,19.13,19.13,0,0,1,7.53-1.22q8.46,0,8.47,4.15a3.26,3.26,0,0,1-.89,2.3,2.74,2.74,0,0,1-2.09,1,12.78,12.78,0,0,1-1.95-.21,16.69,16.69,0,0,0-2.34-.22c-1.75,0-2.87.52-3.37,1.54a10.62,10.62,0,0,0-.74,4.42v2.3h2.37q5.53,0,5.53,3.33c0,1.58-.49,2.59-1.47,3a10.24,10.24,0,0,1-4.06.64H328.9V69.18a6.35,6.35,0,0,1-1.36,4.38A4.55,4.55,0,0,1,324,75.07a4.39,4.39,0,0,1-3.42-1.51,6.29,6.29,0,0,1-1.36-4.38V43.56h-2.66a5.05,5.05,0,0,1-3.33-1A3.11,3.11,0,0,1,312.06,40Q312.08,36.6,316.92,36.58Z"/><path class="cls-2" d="M347.65,31.23A5,5,0,0,1,344.19,30a4.42,4.42,0,0,1-1.43-3.51,4.33,4.33,0,0,1,1.47-3.38,5,5,0,0,1,3.42-1.33A5.12,5.12,0,0,1,351,23a4.31,4.31,0,0,1,1.45,3.51A4.41,4.41,0,0,1,351,30,4.86,4.86,0,0,1,347.65,31.23Zm4.78,10v28a6.25,6.25,0,0,1-1.38,4.4,4.55,4.55,0,0,1-3.51,1.49,4.33,4.33,0,0,1-3.45-1.53,6.4,6.4,0,0,1-1.33-4.36V41.51a6.22,6.22,0,0,1,1.33-4.33,4.49,4.49,0,0,1,3.45-1.45,4.65,4.65,0,0,1,3.51,1.45,5.65,5.65,0,0,1,1.38,4Z"/><path class="cls-2" d="M389.43,57.77H370.5a12.82,12.82,0,0,0,1.33,5.81A8.87,8.87,0,0,0,380,68.65a11,11,0,0,0,3.17-.41A9.79,9.79,0,0,0,386,67a21.49,21.49,0,0,0,2.49-1.86q1.13-1,2.94-2.7a3.22,3.22,0,0,1,2.12-.63,3.51,3.51,0,0,1,2.41.81,2.93,2.93,0,0,1,.92,2.31,6.28,6.28,0,0,1-1,3.06,12.3,12.3,0,0,1-3.1,3.37A17.79,17.79,0,0,1,387.5,74a22.37,22.37,0,0,1-7.22,1.07q-9.31,0-14.49-5.32t-5.17-14.42a24.18,24.18,0,0,1,1.27-8A17.69,17.69,0,0,1,365.61,41a16.15,16.15,0,0,1,6-4,21.76,21.76,0,0,1,7.94-1.4A19,19,0,0,1,389.27,38a15.91,15.91,0,0,1,6.08,6.18,16.21,16.21,0,0,1,2,7.73c0,2.44-.7,4-2.09,4.73A12.85,12.85,0,0,1,389.43,57.77ZM370.5,52.28h17.55q-.36-5-2.68-7.42a8,8,0,0,0-6.11-2.47,7.81,7.81,0,0,0-5.94,2.5Q371,47.41,370.5,52.28Z"/><path class="cls-2" d="M432.06,69.54v-1a24,24,0,0,1-3.84,3.63,14.23,14.23,0,0,1-4.11,2.13,15.28,15.28,0,0,1-4.84.73,14,14,0,0,1-6.43-1.48,14.87,14.87,0,0,1-5.13-4.19A19,19,0,0,1,404.44,63a27,27,0,0,1-1.12-8q0-9.06,4.43-14.14a14.76,14.76,0,0,1,11.66-5.07,15.79,15.79,0,0,1,7,1.44,19.67,19.67,0,0,1,5.6,4.41V27.37a7.25,7.25,0,0,1,1.19-4.5,4,4,0,0,1,3.38-1.53,4.24,4.24,0,0,1,3.39,1.4,6.24,6.24,0,0,1,1.18,4.13V69.54a5.89,5.89,0,0,1-1.27,4.14,4.52,4.52,0,0,1-6.41.13l-.17-.18A5.91,5.91,0,0,1,432.06,69.54ZM413,55.33A16.55,16.55,0,0,0,414.25,62a9.26,9.26,0,0,0,3.35,4.17,8.24,8.24,0,0,0,4.64,1.4,8.45,8.45,0,0,0,4.66-1.33,9,9,0,0,0,3.37-4.08,16.23,16.23,0,0,0,1.26-6.85,16,16,0,0,0-1.26-6.65,10.1,10.1,0,0,0-3.4-4.25,8.23,8.23,0,0,0-4.7-1.47,8,8,0,0,0-4.75,1.51,9.76,9.76,0,0,0-3.24,4.32A17.13,17.13,0,0,0,413,55.33Z"/><polygon class="cls-3" points="21.69 10.85 21.69 16.27 16.27 16.27 16.27 21.69 10.85 21.69 10.85 10.85 21.69 10.85"/><polygon class="cls-3" points="113.87 10.85 113.87 21.69 108.45 21.69 108.45 16.27 103.02 16.27 103.02 10.85 113.87 10.85"/><rect class="cls-4" x="37.96" y="32.54" width="5.42" height="5.42"/><rect class="cls-4" x="81.34" y="32.54" width="5.42" height="5.42"/><polygon class="cls-4" points="75.91 65.07 75.91 70.49 48.8 70.49 48.8 65.07 54.22 65.07 54.22 54.22 59.65 54.22 59.65 48.8 65.07 48.8 65.07 54.22 70.49 54.22 70.49 65.07 75.91 65.07"/><rect class="cls-4" x="43.38" y="59.65" width="5.42" height="5.42"/><rect class="cls-4" x="75.91" y="59.65" width="5.43" height="5.42"/><path class="cls-1" d="M119.29,5.42V0H97.6V5.42H92.18V16.27H86.76V10.85H75.91V5.42H48.8v5.43H38v5.42H32.54V5.42H27.11V0H5.42V5.42H0V27.11H5.42v5.43H16.27V65.07h5.42V75.91h5.42v5.43H38v5.42H86.8V81.34H97.6V75.91H103V65.07h5.43V32.54h10.84V27.11h5.42V5.42Zm-5.42,16.27h-5.42V16.27H103V10.85h10.85Zm-103-10.84H21.69v5.42H16.27v5.42H10.85Zm65,59.64H48.8V65.07H43.38V59.65H48.8v5.42h5.42V54.22h5.43V48.8h5.42v5.42h5.42V65.07h5.42V59.65h5.43v5.42H75.91ZM86.76,38H81.34V32.54h5.42ZM43.38,38H38V32.54h5.42Z"/></g></g></g></g></svg>