<svg xmlns="http://www.w3.org/2000/svg" viewBox="0 0 611.86 611.86"><defs><style>.cls-1{fill:#9f9f9f;}.cls-2{fill:#fff;}</style></defs><g id="Layer_2" data-name="Layer 2"><g id="Layer_1-2" data-name="Layer 1"><path class="cls-1" d="M611.84,608.35c0,2.89-.67,3.55-3.52,3.51-12.61-.17-25.23-.07-37.84-.07-.33-7.38-.38-14.78-1-22.13-4.58-52.09-22.64-99-54.84-140.22C481.41,406.9,439,377.3,387.86,360.17a9,9,0,0,0-9.15,1.33,121,121,0,0,1-62.28,23c-30.58,2.39-58.57-5.29-83.6-23.17a8.17,8.17,0,0,0-8.12-1.36A277,277,0,0,0,187,375.5a263.64,263.64,0,0,0-91,75.42,260.73,260.73,0,0,0-44.91,89.95,275.91,275.91,0,0,0-9.73,70.92c-12.87,0-25.74-.07-38.6.06-2.27,0-2.76-.43-2.75-2.73Q.17,551,.09,492.92.09,248.28,0,3.65C0,.42.81,0,3.78,0q302.15.14,604.3,0c3,0,3.78.42,3.78,3.65Q611.71,306,611.84,608.35Z"/><path class="cls-2" d="M570.48,611.79H41.38a275.91,275.91,0,0,1,9.73-70.92A260.73,260.73,0,0,1,96,450.92a263.64,263.64,0,0,1,91-75.42,277,277,0,0,1,37.73-15.57,8.17,8.17,0,0,1,8.12,1.36c25,17.88,53,25.56,83.6,23.17a121,121,0,0,0,62.28-23,9,9,0,0,1,9.15-1.33C439,377.3,481.41,406.9,514.61,449.44c32.2,41.26,50.26,88.13,54.84,140.22C570.1,597,570.15,604.41,570.48,611.79Z"/><path class="cls-2" d="M306.2,95.59c69.1,0,125.25,56.18,125.19,125.2a125.47,125.47,0,1,1-250.93-.16C180.47,151.47,236.68,95.57,306.2,95.59Z"/></g></g></svg>